# xmcd
#
# Track frame offsets:
#	150
#	15827
#	32602
#	52270
#	60162
#	80350
#	93820
#	108982
#	126937
#	136355
#	172507
#
# Disc length: 2471 seconds
#
# Revision: 0
# Processed by: cddbd v1.5.2PL0 Copyright (c) Steve Scherf et al.
# Submitted via: dBpowerAMP V4.0
#
DISCID=7709a50b
DTITLE=Liller - En buket Seccesser
DYEAR=1997
DGENRE=Dansk
TTITLE0=Sidder på et værtshus
TTITLE1=Hus misted den i nat på D'Angleterre
TTITLE2=Hvor er livet dog skønt
TTITLE3=Jim og jeg var venner alle dage
TTITLE4=Glemmer du
TTITLE5=Nyboders pris
TTITLE6=Man kan vel ikke gøre for at man har charme
TTITLE7=Fra den dag vi mødtes
TTITLE8=En butter og skæg mand
TTITLE9=Manden på risten
TTITLE10=Til vi ses igen
EXTD=
EXTT0=
EXTT1=
EXTT2=
EXTT3=
EXTT4=
EXTT5=
EXTT6=
EXTT7=
EXTT8=
EXTT9=
EXTT10=
PLAYORDER=
